# xmcd CD database file
#
# Track frame offsets:
#	150
#	26438
#	44901
#	61467
#	83891
#	107402
#	125718
#	154457
#	171845
#	185991
#	210593
#
# Disc length: 2819 seconds
#
# Revision: 1
# Processed by: cddbd v1.5.2PL0 Copyright (c) Steve Scherf et al.
# Submitted via: CDex 1.51
#
DISCID=a20b010b
DTITLE=Chicago Six - Hello Sisters (Disk B)
DYEAR=2003
DGENRE=Jazz
TTITLE0=Splanky
TTITLE1=Petite Fleur
TTITLE2=Autumn in New York
TTITLE3=Deed I Do
TTITLE4=Good Bait
TTITLE5=Beginning to See the Light
TTITLE6=Mount Harissa
TTITLE7=Lady Bird
TTITLE8=Stealin' Apples
TTITLE9=Take the A Train
TTITLE10=Theme Tag
EXTD=YEAR: 2003
EXTT0=
EXTT1=
EXTT2=
EXTT3=
EXTT4=
EXTT5=
EXTT6=
EXTT7=
EXTT8=
EXTT9=
EXTT10=
PLAYORDER=
